ffmpeg started on 2026-04-01 at 11:04:49
Report written to "D:\Convert\FFMetrics\reports\ssim_report-6.txt"
Log level: 32
Command line:
ffmpeg -hide_banner -nostdin -r 24000/1001 -i "F:\\Convert\\files\\[DC] Make Heroine ga Oosugiru - 07_Telegram_HEVC(262).mkv" -r 24000/1001 -i "F:\\Convert\\files\\[DC] Make Heroine ga Oosugiru - 07_Telegram.mp4" -lavfi "[0:v]settb=AVTB,setpts=PTS-STARTPTS,format=pix_fmts=yuv420p10le,fps=24000/1001,scale=1920:1080:flags=lanczos:param0=3:out_range=limited:out_color_matrix=bt709:out_chroma_loc=left,setsar=1/1,setdar=(1920/1080)*(1/1),colorspace=format=yuv420p10:range=tv:primaries=bt709:trc=bt709:space=bt709:fast=0[main];[1:v]settb=AVTB,setpts=PTS-STARTPTS,format=pix_fmts=yuv420p,fps=24000/1001,scale=1920:1080:flags=lanczos:param0=3:out_range=limited:out_color_matrix=bt709:out_chroma_loc=left,setsar=1/1,setdar=(1920/1080)*(1/1),colorspace=format=yuv420p:range=tv:primaries=bt709:trc=bt709:space=bt709:fast=0[ref];[main][ref]ssim=eof_action=endall:stats_file='D\\:/Convert/FFMetrics/logs/ssim_logfile-6.txt'" -f null -
Input #0, matroska,webm, from 'F:\Convert\files\[DC] Make Heroine ga Oosugiru - 07_Telegram_HEVC(262).mkv':
  Metadata:
    COMPATIBLE_BRANDS: isomiso2avc1mp41
    MAJOR_BRAND     : isom
    MINOR_VERSION   : 512
    ENCODER         : Lavf61.7.100
  Duration: 00:24:06.79, start: -0.021000, bitrate: 905 kb/s
  Stream #0:0: Video: hevc (Main 10), yuv420p10le(tv, bt709, progressive), 1920x1080 [SAR 1:1 DAR 16:9], 23.98 fps, 23.98 tbr, 1k tbn (default)
      Metadata:
        HANDLER_NAME    : VideoHandler
        VENDOR_ID       : [0][0][0][0]
        ENCODER         : Lavc61.19.100 libx265
        BPS             : 708245
        DURATION        : 00:24:06.569708333
        NUMBER_OF_FRAMES: 34683
        NUMBER_OF_BYTES : 128065781
        _STATISTICS_WRITING_APP: mkvpropedit v94.0 ('Initiate') 64-bit
        _STATISTICS_WRITING_DATE_UTC: 2026-03-30 10:36:51
        _STATISTICS_TAGS: BPS DURATION NUMBER_OF_FRAMES NUMBER_OF_BYTES
  Stream #0:1: Audio: aac (LC), 48000 Hz, stereo, fltp (default)
      Metadata:
        HANDLER_NAME    : SoundHandler
        VENDOR_ID       : [0][0][0][0]
        ENCODER         : Lavc61.19.100 aac
        BPS             : 193194
        DURATION        : 00:24:06.784000000
        NUMBER_OF_FRAMES: 67819
        NUMBER_OF_BYTES : 34938755
        _STATISTICS_WRITING_APP: mkvpropedit v94.0 ('Initiate') 64-bit
        _STATISTICS_WRITING_DATE_UTC: 2026-03-30 10:36:51
        _STATISTICS_TAGS: BPS DURATION NUMBER_OF_FRAMES NUMBER_OF_BYTES
Input #1, mov,mp4,m4a,3gp,3g2,mj2, from 'F:\Convert\files\[DC] Make Heroine ga Oosugiru - 07_Telegram.mp4':
  Metadata:
    major_brand     : isom
    minor_version   : 512
    compatible_brands: isomiso2avc1mp41
    encoder         : Lavf60.16.100
  Duration: 00:24:06.74, start: 0.000000, bitrate: 3764 kb/s
  Stream #1:0[0x1](und): Video: h264 (High) (avc1 / 0x31637661), yuv420p(tv, bt709, progressive), 1920x1080 [SAR 1:1 DAR 16:9], 3616 kb/s, 23.98 fps, 23.98 tbr, 24k tbn (default)
      Metadata:
        handler_name    : VideoHandler
        vendor_id       : [0][0][0][0]
        encoder         : Lavc60.31.102 h264_qsv
  Stream #1:1[0x2](und): Audio: aac (HE-AACv2) (mp4a / 0x6134706D), 48000 Hz, stereo, fltp, 144 kb/s (default)
      Metadata:
        handler_name    : SoundHandler
        vendor_id       : [0][0][0][0]
Stream mapping:
  Stream #0:0 (hevc) -> settb:default
  Stream #1:0 (h264) -> settb:default
  ssim:default -> Stream #0:0 (wrapped_avframe)
  Stream #0:1 -> #0:1 (aac (native) -> pcm_s16le (native))
Output #0, null, to 'pipe:':
  Metadata:
    COMPATIBLE_BRANDS: isomiso2avc1mp41
    MAJOR_BRAND     : isom
    MINOR_VERSION   : 512
    encoder         : Lavf61.7.100
  Stream #0:0: Video: wrapped_avframe, yuv420p10le(tv, bt709, progressive), 1920x1080 [SAR 1:1 DAR 16:9], q=2-31, 200 kb/s, 23.98 fps, 23.98 tbn
      Metadata:
        encoder         : Lavc61.19.100 wrapped_avframe
  Stream #0:1: Audio: pcm_s16le, 48000 Hz, stereo, s16, 1536 kb/s (default)
      Metadata:
        HANDLER_NAME    : SoundHandler
        VENDOR_ID       : [0][0][0][0]
        _STATISTICS_TAGS: BPS DURATION NUMBER_OF_FRAMES NUMBER_OF_BYTES
        BPS             : 193194
        DURATION        : 00:24:06.784000000
        NUMBER_OF_FRAMES: 67819
        NUMBER_OF_BYTES : 34938755
        _STATISTICS_WRITING_APP: mkvpropedit v94.0 ('Initiate') 64-bit
        _STATISTICS_WRITING_DATE_UTC: 2026-03-30 10:36:51
        encoder         : Lavc61.19.100 pcm_s16le
frame=  117 fps=0.0 q=-0.0 size=N/A time=00:00:04.87 bitrate=N/A speed=9.49x    frame=  302 fps=294 q=-0.0 size=N/A time=00:00:12.59 bitrate=N/A speed=12.3x    frame=  499 fps=321 q=-0.0 size=N/A time=00:00:20.81 bitrate=N/A speed=13.4x    frame=  684 fps=331 q=-0.0 size=N/A time=00:00:28.52 bitrate=N/A speed=13.8x    frame=  875 fps=340 q=-0.0 size=N/A time=00:00:36.49 bitrate=N/A speed=14.2x    frame= 1020 fps=329 q=-0.0 size=N/A time=00:00:42.54 bitrate=N/A speed=13.7x    frame= 1181 fps=327 q=-0.0 size=N/A time=00:00:49.25 bitrate=N/A speed=13.6x    frame= 1347 fps=327 q=-0.0 size=N/A time=00:00:56.18 bitrate=N/A speed=13.6x    frame= 1510 fps=325 q=-0.0 size=N/A time=00:01:02.97 bitrate=N/A speed=13.6x    frame= 1654 fps=321 q=-0.0 size=N/A time=00:01:08.98 bitrate=N/A speed=13.4x    frame= 1812 fps=320 q=-0.0 size=N/A time=00:01:15.57 bitrate=N/A speed=13.3x    frame= 1980 fps=320 q=-0.0 size=N/A time=00:01:22.58 bitrate=N/A speed=13.3x    frame= 2095 fps=312 q=-0.0 size=N/A time=00:01:27.37 bitrate=N/A speed=  13x    frame= 2244 fps=311 q=-0.0 size=N/A time=00:01:33.59 bitrate=N/A speed=  13x    frame= 2387 fps=309 q=-0.0 size=N/A time=00:01:39.55 bitrate=N/A speed=12.9x    frame= 2525 fps=306 q=-0.0 size=N/A time=00:01:45.31 bitrate=N/A speed=12.8x    frame= 2685 fps=306 q=-0.0 size=N/A time=00:01:51.98 bitrate=N/A speed=12.8x    frame= 2860 fps=308 q=-0.0 size=N/A time=00:01:59.28 bitrate=N/A speed=12.8x    frame= 3029 fps=309 q=-0.0 size=N/A time=00:02:06.33 bitrate=N/A speed=12.9x    frame= 3223 fps=313 q=-0.0 size=N/A time=00:02:14.42 bitrate=N/A speed=  13x    frame= 3410 fps=315 q=-0.0 size=N/A time=00:02:22.22 bitrate=N/A speed=13.1x    frame= 3590 fps=316 q=-0.0 size=N/A time=00:02:29.73 bitrate=N/A speed=13.2x    frame= 3777 fps=319 q=-0.0 size=N/A time=00:02:37.53 bitrate=N/A speed=13.3x    frame= 3971 fps=321 q=-0.0 size=N/A time=00:02:45.62 bitrate=N/A speed=13.4x    frame= 4156 fps=322 q=-0.0 size=N/A time=00:02:53.33 bitrate=N/A speed=13.4x    frame= 4345 fps=324 q=-0.0 size=N/A time=00:03:01.22 bitrate=N/A speed=13.5x    frame= 4528 fps=325 q=-0.0 size=N/A time=00:03:08.85 bitrate=N/A speed=13.6x    frame= 4720 fps=327 q=-0.0 size=N/A time=00:03:16.86 bitrate=N/A speed=13.6x    frame= 4909 fps=328 q=-0.0 size=N/A time=00:03:24.74 bitrate=N/A speed=13.7x    frame= 5091 fps=329 q=-0.0 size=N/A time=00:03:32.33 bitrate=N/A speed=13.7x    frame= 5275 fps=330 q=-0.0 size=N/A time=00:03:40.01 bitrate=N/A speed=13.8x    frame= 5460 fps=331 q=-0.0 size=N/A time=00:03:47.72 bitrate=N/A speed=13.8x    frame= 5651 fps=332 q=-0.0 size=N/A time=00:03:55.69 bitrate=N/A speed=13.8x    frame= 5831 fps=333 q=-0.0 size=N/A time=00:04:03.20 bitrate=N/A speed=13.9x    frame= 6017 fps=333 q=-0.0 size=N/A time=00:04:10.95 bitrate=N/A speed=13.9x    frame= 6205 fps=334 q=-0.0 size=N/A time=00:04:18.80 bitrate=N/A speed=13.9x    frame= 6391 fps=335 q=-0.0 size=N/A time=00:04:26.55 bitrate=N/A speed=  14x    frame= 6579 fps=336 q=-0.0 size=N/A time=00:04:34.39 bitrate=N/A speed=  14x    frame= 6772 fps=337 q=-0.0 size=N/A time=00:04:42.44 bitrate=N/A speed=  14x    frame= 6964 fps=338 q=-0.0 size=N/A time=00:04:50.45 bitrate=N/A speed=14.1x    frame= 7142 fps=338 q=-0.0 size=N/A time=00:04:57.88 bitrate=N/A speed=14.1x    frame= 7320 fps=338 q=-0.0 size=N/A time=00:05:05.30 bitrate=N/A speed=14.1x    frame= 7503 fps=338 q=-0.0 size=N/A time=00:05:12.93 bitrate=N/A speed=14.1x    frame= 7678 fps=338 q=-0.0 size=N/A time=00:05:20.23 bitrate=N/A speed=14.1x    frame= 7857 fps=339 q=-0.0 size=N/A time=00:05:27.70 bitrate=N/A speed=14.1x    frame= 8045 fps=339 q=-0.0 size=N/A time=00:05:35.54 bitrate=N/A speed=14.1x    frame= 8230 fps=339 q=-0.0 size=N/A time=00:05:43.25 bitrate=N/A speed=14.2x    frame= 8416 fps=340 q=-0.0 size=N/A time=00:05:51.01 bitrate=N/A speed=14.2x    frame= 8596 fps=340 q=-0.0 size=N/A time=00:05:58.52 bitrate=N/A speed=14.2x    frame= 8778 fps=341 q=-0.0 size=N/A time=00:06:06.11 bitrate=N/A speed=14.2x    frame= 8968 fps=341 q=-0.0 size=N/A time=00:06:14.04 bitrate=N/A speed=14.2x    frame= 9152 fps=341 q=-0.0 size=N/A time=00:06:21.71 bitrate=N/A speed=14.2x    frame= 9339 fps=342 q=-0.0 size=N/A time=00:06:29.51 bitrate=N/A speed=14.3x    frame= 9525 fps=342 q=-0.0 size=N/A time=00:06:37.27 bitrate=N/A speed=14.3x    frame= 9721 fps=342 q=-0.0 size=N/A time=00:06:45.44 bitrate=N/A speed=14.3x    frame= 9907 fps=343 q=-0.0 size=N/A time=00:06:53.20 bitrate=N/A speed=14.3x    frame=10091 fps=343 q=-0.0 size=N/A time=00:07:00.87 bitrate=N/A speed=14.3x    frame=10277 fps=343 q=-0.0 size=N/A time=00:07:08.63 bitrate=N/A speed=14.3x    frame=10465 fps=344 q=-0.0 size=N/A time=00:07:16.47 bitrate=N/A speed=14.3x    frame=10645 fps=344 q=-0.0 size=N/A time=00:07:23.98 bitrate=N/A speed=14.3x    frame=10831 fps=344 q=-0.0 size=N/A time=00:07:31.74 bitrate=N/A speed=14.4x    frame=11009 fps=344 q=-0.0 size=N/A time=00:07:39.16 bitrate=N/A speed=14.4x    frame=11185 fps=344 q=-0.0 size=N/A time=00:07:46.50 bitrate=N/A speed=14.4x    frame=11369 fps=344 q=-0.0 size=N/A time=00:07:54.18 bitrate=N/A speed=14.4x    frame=11559 fps=345 q=-0.0 size=N/A time=00:08:02.10 bitrate=N/A speed=14.4x    frame=11741 fps=345 q=-0.0 size=N/A time=00:08:09.69 bitrate=N/A speed=14.4x    frame=11926 fps=345 q=-0.0 size=N/A time=00:08:17.41 bitrate=N/A speed=14.4x    frame=12118 fps=345 q=-0.0 size=N/A time=00:08:25.42 bitrate=N/A speed=14.4x    frame=12303 fps=346 q=-0.0 size=N/A time=00:08:33.13 bitrate=N/A speed=14.4x    frame=12481 fps=346 q=-0.0 size=N/A time=00:08:40.56 bitrate=N/A speed=14.4x    frame=12673 fps=346 q=-0.0 size=N/A time=00:08:48.56 bitrate=N/A speed=14.4x    frame=12859 fps=346 q=-0.0 size=N/A time=00:08:56.32 bitrate=N/A speed=14.4x    frame=13050 fps=347 q=-0.0 size=N/A time=00:09:04.29 bitrate=N/A speed=14.5x    frame=13230 fps=347 q=-0.0 size=N/A time=00:09:11.80 bitrate=N/A speed=14.5x    frame=13416 fps=347 q=-0.0 size=N/A time=00:09:19.55 bitrate=N/A speed=14.5x    frame=13597 fps=347 q=-0.0 size=N/A time=00:09:27.10 bitrate=N/A speed=14.5x    frame=13774 fps=347 q=-0.0 size=N/A time=00:09:34.49 bitrate=N/A speed=14.5x    frame=13955 fps=347 q=-0.0 size=N/A time=00:09:42.03 bitrate=N/A speed=14.5x    frame=14119 fps=346 q=-0.0 size=N/A time=00:09:48.87 bitrate=N/A speed=14.4x    frame=14312 fps=347 q=-0.0 size=N/A time=00:09:56.92 bitrate=N/A speed=14.5x    frame=14488 fps=347 q=-0.0 size=N/A time=00:10:04.27 bitrate=N/A speed=14.5x    frame=14673 fps=347 q=-0.0 size=N/A time=00:10:11.98 bitrate=N/A speed=14.5x    frame=14852 fps=347 q=-0.0 size=N/A time=00:10:19.45 bitrate=N/A speed=14.5x    frame=15039 fps=347 q=-0.0 size=N/A time=00:10:27.25 bitrate=N/A speed=14.5x    frame=15199 fps=347 q=-0.0 size=N/A time=00:10:33.92 bitrate=N/A speed=14.5x    frame=15381 fps=347 q=-0.0 size=N/A time=00:10:41.51 bitrate=N/A speed=14.5x    frame=15567 fps=347 q=-0.0 size=N/A time=00:10:49.27 bitrate=N/A speed=14.5x    frame=15749 fps=347 q=-0.0 size=N/A time=00:10:56.86 bitrate=N/A speed=14.5x    frame=15931 fps=347 q=-0.0 size=N/A time=00:11:04.45 bitrate=N/A speed=14.5x    frame=16117 fps=347 q=-0.0 size=N/A time=00:11:12.21 bitrate=N/A speed=14.5x    frame=16293 fps=347 q=-0.0 size=N/A time=00:11:19.55 bitrate=N/A speed=14.5x    frame=16478 fps=347 q=-0.0 size=N/A time=00:11:27.26 bitrate=N/A speed=14.5x    frame=16661 fps=347 q=-0.0 size=N/A time=00:11:34.90 bitrate=N/A speed=14.5x    frame=16846 fps=347 q=-0.0 size=N/A time=00:11:42.61 bitrate=N/A speed=14.5x    frame=17033 fps=348 q=-0.0 size=N/A time=00:11:50.41 bitrate=N/A speed=14.5x    frame=17222 fps=348 q=-0.0 size=N/A time=00:11:58.30 bitrate=N/A speed=14.5x    frame=17408 fps=348 q=-0.0 size=N/A time=00:12:06.05 bitrate=N/A speed=14.5x    frame=17589 fps=348 q=-0.0 size=N/A time=00:12:13.60 bitrate=N/A speed=14.5x    frame=17771 fps=348 q=-0.0 size=N/A time=00:12:21.19 bitrate=N/A speed=14.5x    frame=17965 fps=348 q=-0.0 size=N/A time=00:12:29.29 bitrate=N/A speed=14.5x    frame=18154 fps=348 q=-0.0 size=N/A time=00:12:37.17 bitrate=N/A speed=14.5x    frame=18325 fps=348 q=-0.0 size=N/A time=00:12:44.30 bitrate=N/A speed=14.5x    frame=18518 fps=348 q=-0.0 size=N/A time=00:12:52.35 bitrate=N/A speed=14.5x    frame=18703 fps=349 q=-0.0 size=N/A time=00:13:00.07 bitrate=N/A speed=14.5x    frame=18887 fps=349 q=-0.0 size=N/A time=00:13:07.74 bitrate=N/A speed=14.5x    frame=19070 fps=349 q=-0.0 size=N/A time=00:13:15.37 bitrate=N/A speed=14.5x    frame=19270 fps=349 q=-0.0 size=N/A time=00:13:23.71 bitrate=N/A speed=14.6x    frame=19453 fps=349 q=-0.0 size=N/A time=00:13:31.35 bitrate=N/A speed=14.6x    frame=19640 fps=349 q=-0.0 size=N/A time=00:13:39.15 bitrate=N/A speed=14.6x    frame=19821 fps=349 q=-0.0 size=N/A time=00:13:46.70 bitrate=N/A speed=14.6x    frame=20017 fps=350 q=-0.0 size=N/A time=00:13:54.87 bitrate=N/A speed=14.6x    frame=20200 fps=350 q=-0.0 size=N/A time=00:14:02.50 bitrate=N/A speed=14.6x    frame=20374 fps=349 q=-0.0 size=N/A time=00:14:09.76 bitrate=N/A speed=14.6x    frame=20555 fps=350 q=-0.0 size=N/A time=00:14:17.31 bitrate=N/A speed=14.6x    frame=20737 fps=350 q=-0.0 size=N/A time=00:14:24.90 bitrate=N/A speed=14.6x    frame=20920 fps=350 q=-0.0 size=N/A time=00:14:32.53 bitrate=N/A speed=14.6x    frame=21105 fps=350 q=-0.0 size=N/A time=00:14:40.25 bitrate=N/A speed=14.6x    frame=21295 fps=350 q=-0.0 size=N/A time=00:14:48.17 bitrate=N/A speed=14.6x    frame=21482 fps=350 q=-0.0 size=N/A time=00:14:55.97 bitrate=N/A speed=14.6x    frame=21671 fps=350 q=-0.0 size=N/A time=00:15:03.86 bitrate=N/A speed=14.6x    frame=21858 fps=350 q=-0.0 size=N/A time=00:15:11.66 bitrate=N/A speed=14.6x    frame=22050 fps=350 q=-0.0 size=N/A time=00:15:19.66 bitrate=N/A speed=14.6x    frame=22239 fps=350 q=-0.0 size=N/A time=00:15:27.55 bitrate=N/A speed=14.6x    frame=22416 fps=350 q=-0.0 size=N/A time=00:15:34.93 bitrate=N/A speed=14.6x    frame=22596 fps=350 q=-0.0 size=N/A time=00:15:42.44 bitrate=N/A speed=14.6x    frame=22780 fps=350 q=-0.0 size=N/A time=00:15:50.11 bitrate=N/A speed=14.6x    frame=22956 fps=350 q=-0.0 size=N/A time=00:15:57.45 bitrate=N/A speed=14.6x    frame=23141 fps=350 q=-0.0 size=N/A time=00:16:05.17 bitrate=N/A speed=14.6x    frame=23328 fps=350 q=-0.0 size=N/A time=00:16:12.97 bitrate=N/A speed=14.6x    frame=23517 fps=351 q=-0.0 size=N/A time=00:16:20.85 bitrate=N/A speed=14.6x    frame=23701 fps=351 q=-0.0 size=N/A time=00:16:28.52 bitrate=N/A speed=14.6x    frame=23886 fps=351 q=-0.0 size=N/A time=00:16:36.24 bitrate=N/A speed=14.6x    frame=24079 fps=351 q=-0.0 size=N/A time=00:16:44.29 bitrate=N/A speed=14.6x    frame=24260 fps=351 q=-0.0 size=N/A time=00:16:51.84 bitrate=N/A speed=14.6x    frame=24436 fps=351 q=-0.0 size=N/A time=00:16:59.18 bitrate=N/A speed=14.6x    frame=24619 fps=351 q=-0.0 size=N/A time=00:17:06.81 bitrate=N/A speed=14.6x    frame=24804 fps=351 q=-0.0 size=N/A time=00:17:14.53 bitrate=N/A speed=14.6x    frame=24991 fps=351 q=-0.0 size=N/A time=00:17:22.33 bitrate=N/A speed=14.6x    frame=25183 fps=351 q=-0.0 size=N/A time=00:17:30.34 bitrate=N/A speed=14.6x    frame=25373 fps=351 q=-0.0 size=N/A time=00:17:38.26 bitrate=N/A speed=14.7x    frame=25556 fps=351 q=-0.0 size=N/A time=00:17:45.89 bitrate=N/A speed=14.7x    frame=25740 fps=351 q=-0.0 size=N/A time=00:17:53.57 bitrate=N/A speed=14.7x    frame=25922 fps=351 q=-0.0 size=N/A time=00:18:01.16 bitrate=N/A speed=14.7x    frame=26117 fps=352 q=-0.0 size=N/A time=00:18:09.29 bitrate=N/A speed=14.7x    frame=26298 fps=352 q=-0.0 size=N/A time=00:18:16.84 bitrate=N/A speed=14.7x    frame=26485 fps=352 q=-0.0 size=N/A time=00:18:24.64 bitrate=N/A speed=14.7x    frame=26673 fps=352 q=-0.0 size=N/A time=00:18:32.48 bitrate=N/A speed=14.7x    frame=26861 fps=352 q=-0.0 size=N/A time=00:18:40.32 bitrate=N/A speed=14.7x    frame=27032 fps=352 q=-0.0 size=N/A time=00:18:47.45 bitrate=N/A speed=14.7x    frame=27212 fps=352 q=-0.0 size=N/A time=00:18:54.96 bitrate=N/A speed=14.7x    frame=27389 fps=352 q=-0.0 size=N/A time=00:19:02.34 bitrate=N/A speed=14.7x    frame=27571 fps=352 q=-0.0 size=N/A time=00:19:09.94 bitrate=N/A speed=14.7x    frame=27753 fps=352 q=-0.0 size=N/A time=00:19:17.53 bitrate=N/A speed=14.7x    frame=27935 fps=352 q=-0.0 size=N/A time=00:19:25.12 bitrate=N/A speed=14.7x    frame=28121 fps=352 q=-0.0 size=N/A time=00:19:32.88 bitrate=N/A speed=14.7x    frame=28303 fps=352 q=-0.0 size=N/A time=00:19:40.47 bitrate=N/A speed=14.7x    frame=28480 fps=352 q=-0.0 size=N/A time=00:19:47.85 bitrate=N/A speed=14.7x    frame=28670 fps=352 q=-0.0 size=N/A time=00:19:55.77 bitrate=N/A speed=14.7x    frame=28838 fps=352 q=-0.0 size=N/A time=00:20:02.78 bitrate=N/A speed=14.7x    frame=29000 fps=351 q=-0.0 size=N/A time=00:20:09.54 bitrate=N/A speed=14.7x    frame=29167 fps=351 q=-0.0 size=N/A time=00:20:16.50 bitrate=N/A speed=14.6x    frame=29347 fps=351 q=-0.0 size=N/A time=00:20:24.01 bitrate=N/A speed=14.6x    frame=29513 fps=351 q=-0.0 size=N/A time=00:20:30.93 bitrate=N/A speed=14.6x    frame=29692 fps=351 q=-0.0 size=N/A time=00:20:38.40 bitrate=N/A speed=14.6x    frame=29868 fps=351 q=-0.0 size=N/A time=00:20:45.74 bitrate=N/A speed=14.6x    frame=30026 fps=351 q=-0.0 size=N/A time=00:20:52.33 bitrate=N/A speed=14.6x    frame=30208 fps=351 q=-0.0 size=N/A time=00:20:59.92 bitrate=N/A speed=14.6x    frame=30391 fps=351 q=-0.0 size=N/A time=00:21:07.55 bitrate=N/A speed=14.6x    frame=30569 fps=351 q=-0.0 size=N/A time=00:21:14.98 bitrate=N/A speed=14.6x    frame=30758 fps=351 q=-0.0 size=N/A time=00:21:22.86 bitrate=N/A speed=14.6x    frame=30945 fps=351 q=-0.0 size=N/A time=00:21:30.66 bitrate=N/A speed=14.6x    frame=31128 fps=351 q=-0.0 size=N/A time=00:21:38.29 bitrate=N/A speed=14.6x    frame=31318 fps=351 q=-0.0 size=N/A time=00:21:46.22 bitrate=N/A speed=14.6x    frame=31492 fps=351 q=-0.0 size=N/A time=00:21:53.47 bitrate=N/A speed=14.6x    frame=31677 fps=351 q=-0.0 size=N/A time=00:22:01.23 bitrate=N/A speed=14.6x    frame=31853 fps=351 q=-0.0 size=N/A time=00:22:08.53 bitrate=N/A speed=14.6x    frame=32036 fps=351 q=-0.0 size=N/A time=00:22:16.16 bitrate=N/A speed=14.6x    frame=32212 fps=351 q=-0.0 size=N/A time=00:22:23.50 bitrate=N/A speed=14.6x    frame=32399 fps=351 q=-0.0 size=N/A time=00:22:31.30 bitrate=N/A speed=14.6x    frame=32587 fps=351 q=-0.0 size=N/A time=00:22:39.14 bitrate=N/A speed=14.6x    frame=32734 fps=351 q=-0.0 size=N/A time=00:22:45.28 bitrate=N/A speed=14.6x    frame=32898 fps=350 q=-0.0 size=N/A time=00:22:52.12 bitrate=N/A speed=14.6x    frame=33070 fps=350 q=-0.0 size=N/A time=00:22:59.29 bitrate=N/A speed=14.6x    frame=33250 fps=350 q=-0.0 size=N/A time=00:23:06.80 bitrate=N/A speed=14.6x    frame=33422 fps=350 q=-0.0 size=N/A time=00:23:13.97 bitrate=N/A speed=14.6x    frame=33575 fps=350 q=-0.0 size=N/A time=00:23:20.35 bitrate=N/A speed=14.6x    frame=33726 fps=350 q=-0.0 size=N/A time=00:23:26.65 bitrate=N/A speed=14.6x    frame=33850 fps=349 q=-0.0 size=N/A time=00:23:31.82 bitrate=N/A speed=14.6x    frame=33996 fps=349 q=-0.0 size=N/A time=00:23:37.91 bitrate=N/A speed=14.5x    frame=34151 fps=348 q=-0.0 size=N/A time=00:23:44.38 bitrate=N/A speed=14.5x    frame=34311 fps=348 q=-0.0 size=N/A time=00:23:51.05 bitrate=N/A speed=14.5x    frame=34438 fps=348 q=-0.0 size=N/A time=00:23:56.35 bitrate=N/A speed=14.5x    frame=34609 fps=348 q=-0.0 size=N/A time=00:24:03.48 bitrate=N/A speed=14.5x    [Parsed_ssim_16 @ 000002385d32f100] SSIM Y:0.993764 (22.051118) U:0.993997 (22.215992) V:0.993601 (21.938988) All:0.993776 (22.059157)
[out#0/null @ 00000238509ddec0] video:14903KiB audio:271276KiB subtitle:0KiB other streams:0KiB global headers:0KiB muxing overhead: unknown
frame=34683 fps=348 q=-0.0 Lsize=N/A time=00:24:06.57 bitrate=N/A speed=14.5x    
